<?xml version="1.0" encoding="UTF-8"?>
<svg id="Layer_2" data-name="Layer 2" xmlns="http://www.w3.org/2000/svg" viewBox="0 0 2500.31 251.76">
  <defs>
    <style>
      .cls-1 {
        fill: #fff;
      }
    </style>
  </defs>
  <g id="Guidelines">
    <g>
      <path class="cls-1" d="M928.32,0l.04.71c.05.47,3.32-.08,7.63.79,13.5,2.72,26.91,8.6,37.59,17.72,12.64,10.8,21.12,25.89,25.03,42.06l.98,4.87c.46,2.28.4,4.4.75,6.77l.71,4.85c.75,5.17.9,10.51.02,15.67l-.74,4.35c-.3,1.78-.31,3.31-.66,4.95l-1.01,4.8-.77,3.19c-4.24,17.58-17.96,39.03-27.94,55.05l-36.25,58.25c-3.93,6.32-7.74,12.18-9.14,19.62l-.4,4.73-42.39.04c.04-1.31.73-1.93,1.48-2.91,5.82-7.61,10.59-15.52,15.55-23.81l33.51-55.99,4.15-6.8-9.07,1.77-10.44.7c-2.92.2-5.13.32-8.08.05l-8.89-.82c-15.33-2.69-29.53-9.13-40.57-20.36l-5.59-6.38-4.19-5.8c-3.16-4.38-5.2-9.41-7.11-14.47-4.15-11-5.29-22.27-5.49-33.99l-.07-4.34,1.35-10.86c2.49-12.6,7.89-24.35,15.76-34.44,3.14-4.02,6.56-7.14,10.26-10.43,10.63-9.46,24.37-15.11,38.18-17.97,4.48-.93,7.96-.42,8.01-.86l.04-.71h17.76ZM913.26,129.69c3.89.66,7.95.62,11.57.03l5.82-.95,3.98-1.15c16.7-4.84,28.09-18.84,31.31-35.74.62-3.23,1.36-6.98,1.06-10.33l-.99-10.98-1.07-4.14c-4.18-16.2-16.4-29.14-32.85-33.18l-4.7-.91-7.8-.42-8.55.47-4.84.88-3.81,1.27c-15.21,5.09-26.06,17.66-30.19,33.19l-1.08,5.66c-.86,4.49-.64,8.88-.06,13.41l.73,5.72c2.12,9,6.14,17.02,12.75,23.66l6.52,5.46c5.24,3.63,11.22,6.21,17.57,7.28l4.62.78Z"/>
      <path class="cls-1" d="M1208.16,0c-.2.09.34.9.59.92l5.91.35,4.38.89c8.64,1.75,16.91,4.44,25.09,8.05l.76,32.11.36,8.77c-.05.31-.62.54-.84.27l-7.98-6.81c-5.76-4.91-13.05-7.59-20.3-9.83l-3.07-.95-4.86-.94-6.77-.86c-3.29-.42-6.29-.14-9.61.02l-7.99.37-5.21,1.04c-8.7,1.73-16.87,5.97-22.62,12.73l-2.17,3.11-2.96,6.28c-3.08,8.62-2.2,20.5,3.39,27.57,1.68,2.12,3.43,4.39,5.56,5.91l5.28,3.76,8.55,4.99,6.79,3.23,21.99,9.32,16.22,7.77c11.79,6.44,21.54,15.2,28.13,26.98l4.5,10.31,1.96,6.77.8,3.74.92,8.3c.49,4.42.55,9.34-.03,13.77l-.87,6.79-1.02,4.56-.84,3.09c-2.05,7.52-5.62,14.51-10.5,20.55l-3.43,4.25c-9.58,9.81-22.52,18.07-35.81,20.92l-4.86,1.04-5.26.97-7.24.89-16.31.02-10.93-.45-4.41-.71-5.32-.72-5.28-.99-3.3-.78c-6.87-1.62-13.4-3.91-20.13-6.88l-.17-15.99-.75-4.93-.16-19.49,4.7,3.92c8.35,6.97,18.4,10.83,28.82,13.41,9.31,2.31,20.1,2.82,29.71,2.04,16.77-1.35,32.78-9.91,37.78-26.58.88-2.93,1.48-5.67,1.46-8.69l-.02-4.4-1-8.21c-1.31-5.4-3.52-10.11-7.51-14.23-6.27-6.46-13.83-11.43-22.25-15.04l-27.5-11.79c-7.22-3.1-13.59-6.74-19.93-11.26-4.25-3.03-8.29-6.05-11.64-10.01l-5.07-5.99c-4.33-6.12-7.8-12.5-9.22-19.98l-.97-5.12-.95-11.5,1.05-11.8c2.02-13.91,10.7-28.53,21.97-36.97,5.34-4,10.72-7.39,16.91-9.94l4.82-1.99c5.16-2.13,10.37-3.51,15.94-4.22l6.79-.87,1.4-.1c.18-.01.04-.72.03-.76h24.48Z"/>
      <g>
        <path class="cls-1" d="M2223.35,0c-.15.11.26.94.51.94h3.33s5.89.73,5.89.73l14.44,2.89,13.26,4.49,7.63,3.13c19.01,9.19,35.52,23,47.7,40.33,9.79,13.92,16.18,29.15,19.76,45.62,1.82,8.37,2.85,16.51,2.9,25.05l.04,7.39c-.42,8.03-1.18,15.62-2.94,23.52-8.3,37.31-31.68,67.04-65.8,84.33l-12.64,5.19-11.65,3.72-3.19.77-5.69,1.07-4.44.66-4,.72-10.25.48-11.19-.04-9.83-.46-3.58-.69-4.36-.68-5.76-1.04-3.58-.81-13.04-4.34c-11.36-3.78-21.84-9.33-30.92-17.06l-10.15-8.64c-16.67-15.9-28.92-35.75-34.14-58.25l-1.07-4.63-.95-4.36-.94-5.7-.94-9.16v-22.48s.85-6.24.85-6.24l1.05-6.21,1.02-4.64c3.8-17.32,11.54-33.08,22.24-47.14l4.13-5.07,3.41-3.79,9.51-9.21c15.36-12.67,27.67-19.28,46.81-25.24l16.2-3.45,9.31-.8c.26-.02.86-.01.88-.19l.04-.71h20.16ZM2202.61,218.86h20.96s7.89-1.27,7.89-1.27l3.83-.88,12.94-4.41,8.19-4.18c4.23-2.16,7.77-4.73,11.53-7.72,16.06-12.78,26.91-30.36,31.8-50.21l2.13-11.36c3.35-31.16-5.68-61.83-28.74-83.57-7.24-6.82-18.06-14.3-27.2-17.41l-7.73-2.64-3.53-.89-4.1-1.05-4.99-.86-7.34-.51h-10.96s-7.33.5-7.33.5l-4.99.9-4.08,1.02-3.53.88-10.71,3.97c-7.63,3.32-14.87,7.44-20.96,13.12l-6.45,6.02-3.25,3.49c-10.36,11.98-17.32,26.24-20.83,41.64l-1.01,5.39-.85,7.7v11.02s.41,10.49.41,10.49l.94,6.28,1.07,5.06c2.88,13.58,12.13,32.16,21.89,41.77l6.36,6.26c13.67,11.93,30.18,19.67,48.64,21.43Z"/>
        <path class="cls-1" d="M2453.27,0s-.16.78.03.79l1.39.07,6.5.73,12.83,3.01c5.36,1.26,10.4,3.35,15.25,5.77l.23,23.47.51,6.16.18,12.02c-6.79-6.43-13.74-12.03-22.51-15.04l-9.11-3.13-5.27-1.03-6.76-.86c-3.29-.42-6.29-.15-9.61.01l-7.99.39-5.24,1.01c-9.25,1.79-19.47,7.29-24.41,15.35-1.59,2.6-3.24,5.34-3.94,8.38l-.8,3.49c-.85,3.72-.48,7.79.1,11.37,1.03,6.31,4.09,11.18,8.53,15.47l3.39,2.85c7.42,5.38,15.27,9.21,23.69,12.76l20.6,8.69c8.75,3.69,17.16,7.84,24.41,13.94l4.2,3.53,2.39,2.38c7.9,7.86,13.16,17.51,15.83,28.32l.89,3.6.92,7.15.39,4.86.4.48-.21,10.01-1.24,9.75c-1.91,10.18-5.97,19.62-12.5,27.66l-3.1,3.81-2.56,2.52-5.69,4.97c-9.19,7.31-20.19,12.27-31.76,14.36l-5.81,1.04-7.23.88-16.31.03-10.97-.42-3.83-.75-5.87-.72-5.26-1-3.3-.75c-6.97-1.59-13.71-4.03-20.18-6.94l-.24-16.33-.68-5.39-.27-17.98c.23-.42.65-.56,1-.27,6.7,6.87,14.68,11.57,23.72,14.32l6.26,1.9,3.44.88c9.49,2.42,19.18,2.67,28.94,1.86,17.02-1.4,32.88-10.04,37.92-27.02l.98-4.83c.44-2.17.84-4.57.56-6.73l-1.11-8.66-.97-3.69-.97-2.82c-5.63-11.98-20.33-20.32-32.54-25.49l-23.58-9.99c-6.98-2.96-13.03-6.77-19.25-10.93-5-3.34-9.05-7.08-13.06-11.51-10.28-11.35-14.96-25.83-14.58-41.12.17-7.08.44-13.52,2.85-20.2,1.86-5.15,3.86-10.08,7.02-14.61,3.38-4.86,6.93-9.26,11.57-12.92,5.52-4.36,11.19-7.87,17.6-10.73,6.84-3.05,13.57-5.48,21.05-6.4l7.71-.95c.28-.03.87.04.89-.14l.04-.7h24.48Z"/>
      </g>
      <path class="cls-1" d="M1945.93,206.89l-8.75,9.22-6.13,5.45c-14.42,11.4-30.81,19.6-48.7,24.1l-4.7,1.01-4.85.95-6.62.97-8.62,1.05-46.5.16-3.85-.83-17.66-.33-32.28-.29c1.46-4.66,4.24-8.74,4.24-13.68l.06-214.91c0-5.84-1.69-10.63-4.04-15.85l.63-.81,91.22.04,10.86.45,8.24.92,5.92.96,3.76.85,5.09,1.19c10.83,2.52,21.02,6.37,30.75,11.85,5.89,3.32,11.48,6.42,16.59,10.82l6.19,5.33,5.32,5.31c13.91,13.9,22.75,31.61,27.89,50.6l1.11,4.1.98,5.2.89,5.34,1.03,8.58v25.76s-.67,4.91-.67,4.91l-.71,3.95-1.02,5.27-.98,4.31c-3.43,15.06-14.1,36.86-24.71,48.06ZM1936.99,110.13l-.87-4.6-1.03-4.64c-3.26-14.7-14.24-33.8-25.77-43.18l-4.03-3.28c-10.48-8.52-22.77-14.16-35.94-17.1l-4.62-1.03-5.83-.95-7.42-.38-2.1-.91-54.2.02v170.11c0,5.54,2.36,10.79,7.69,12.57,3.97,1.33,8.12,2.36,12.35,2.61,12.56.75,24.89.99,37.56.43,22.16-.98,47.2-12.11,61.79-29.06,11.47-12.49,18.36-27.07,21.78-43.49l.71-3.39.98-7.23c.81-6,.71-12.15-.02-18.16l-1.01-8.34Z"/>
      <path class="cls-1" d="M628.52,234.54l3.08,3.89,9.28,9.92-48.18.09-1.61-4.67-4.17-9.72-1.82-2.9-18.49-27.11-26.83-38.85-5.04-6.04c-2.28-2.74-4.85-4.94-7.72-7.19-5.09-3.99-11.17-6.55-17.65-7.66l-11.17-.43.05,91.06c0,4.89,2.48,8.93,4.06,13.48l-42.05-.02,3.53-10.02c.7-1.98.85-3.98.85-6.41V21.72c0-6.57-1.39-12.68-4.44-18.6h72.25s7.08.32,7.08.32l6.64,1,5.19,1.07c10.82,2.23,20.2,6.99,28.92,13.65,4.09,3.12,7.22,6.74,10.42,10.78,6.42,8.09,10.65,17.37,12.93,27.52.34,1.5.33,2.84.66,4.47l.78,3.84c.48,6.22.63,12.35-.03,18.55l-.91,4.84-1.02,4.67c-1.75,8.02-5.46,15.15-10.28,21.79l-4.97,5.6-6.91,6.49c-5.31,4.04-11.2,7.21-17.27,9.98l-3.79,1.73,12.31,14.04,13.54,18.52,11.38,16.47,11.81,17.44,10.56,15.85,9.03,12.79ZM570.02,83.12c.53-2.73,1.07-5.87.83-8.31l-.83-8.53c-1.54-9.3-6.23-17.57-13.68-23.11-6.24-4.65-14.34-7.86-22.24-8.14-.66-.13-1.67-.54-2.45-.96l-33.46-.04v77.96c1.51.82,2.77.79,4.41,1.1l3.97.74h23.64s6.17-1.05,6.17-1.05l4.11-1.01c14.91-3.64,26.49-13.07,29.51-28.65Z"/>
      <path class="cls-1" d="M1711.79,18.86l-.29,132.37-.52,13.23-.93,6.72-.97,4.74-1.04,4.19c-1.75,7.06-4.23,13.36-7.47,19.83-10.42,20.78-28.33,36.24-50.05,44.35l-12.29,3.84-4.29,1-4.84.72-4.01.7-8.13.6c-3.06.23-5.53.36-8.58.23l-11.45-.48c-1.83-.08-3.58-.49-5.27-.81l-4.91-.95-4.81-.97-3.84-.96-13.41-4.9c-8.85-3.23-16.31-8.33-23.51-14.52-9.61-8.26-17.49-18.08-23.13-29.49-5.01-10.13-8.3-20.59-9.54-31.78l-1.12-7.11-.15-142.53-.99-4.39-3.21-9.39h42.04s-3.2,8.13-3.2,8.13c-.95,2.41.01,4.55-1.55,6.66l.08,133.05,1.24,9.66.87,4.7.96,4.27,2.57,7.51,2.52,5.53c3.86,8.48,9.74,15.58,16.89,21.46,7.95,6.53,16.63,10.83,26.54,13.34l11.05,1.96c12.24,1.14,24.6-.66,36.06-4.99,6.61-2.5,12-6.17,17.38-10.5,6.19-4.98,10.83-11.04,14.68-18.01,3.75-6.8,5.99-14.05,7.62-21.62l.56-3.63.95-5.41V17.89c0-1.58-.61-4.02-1.05-5.33l-3.17-9.45h31.24s8.12,0,8.12,0c.31,0,1,.27.93.45l-.4.92c-1.85,4.28-4.19,8.91-4.2,14.38Z"/>
      <path class="cls-1" d="M711.14,249.6l-4.89-.99c-14.67-2.96-27.62-10.28-38.49-20.36l-2.36-2.19c-.59-.55-1.6-2.13-1.12-3.04l8.89-16.6,5.66-10.71c.46-.88,1.16-1.82,1.86-2.48l5.44,7.41c1.91,2.6,4.28,4.69,6.77,6.74,5.56,4.59,11.38,7.89,18.48,10.01,11.1,3.31,23.48,3.55,34.59,0,14.6-4.67,25.18-15.9,30.01-30.07,1.76-5.16,2.37-10.13,2.84-15.53l-.05-5.91c-.12-13.96-6.31-29.06-17.3-38.06-4.86-3.98-10.54-6.78-16.64-8.65l-3.8-.89-6.85-1c-2.36-.34-5.37-.42-7.7-.02l-5.94,1.02-3.78.96-3.67.98c-9.19,3.99-16.77,9.95-23.51,17.28l-4.78-1.17-19.49-5.94.07-7.65.71-7.72.54-10.75.64-7.88.74-10.07.88-13.23,1.01-14.3,1.03-13.89.82-13.24.69-9.59.66-8.36.55-10.59h118.71s.27,10.35.27,10.35l.59,6.48.26,20.48c-5.25-2.39-10.26-4.59-15.83-5.27-1.96-.24-3.62-.02-5.35-1.09h-68.7s-.64,9.44-.64,9.44l-.58,7.32-.72,10.3-.4,11.19-.84,2.11-.32,11.27-.74,5.78,8.6-2.89,10.81-2.44,5.27-.9h15.58s6.48.89,6.48.89c14.21,1.98,27.17,7.85,38.3,16.96,12.99,10.63,21.27,25.26,25.59,41.44l1.04,4.61.94,5.39.8,8.52c.37,3.93.49,7.58.05,11.51l-.79,7.05-.75,4.01c-1.92,10.29-5.87,20-11.44,28.8l-3.19,4.57c-6.49,9.28-17.38,18.33-27.62,23.3-5.31,2.58-10.36,4.95-16.19,6.28l-4.51,1.03-5.74.91-9.64,1.11c-1.73.2-3.95.17-5.68,0l-10.65-1.09-5.45-.92Z"/>
      <path class="cls-1" d="M396.13,216.86l5.23-1.09,5.95-1.5,8-3.32-.66,4.11-1.06,4.71-.98,4.22-1,4.38-.98,4.32-.96,4.25-.99,4.38-1.07,4.75-.4,1.78c-.09.38-1.09.56-1.74.56h-131.08s3.5-9.71,3.5-9.71c.39-1.08.44-2.51.51-3.68l.45-6.88-.04-204.79c0-7.47-1.15-13.28-4.42-20.24h129.89s.62,13.97.62,13.97l.79,21.75-.5,1.25c-.1.24-.78-.02-1.1-.18-5.01-2.51-10.1-4.41-15.76-4.84-1.56-.01-2.85-.36-4.35-1h-71.93s-.03,73.96-.03,73.96h75.79c4.57-.73,8.48-2,12.54-3.92l1.43.08-.03,39.1-6.31-2.09-3.75-1.09c-1.8,0-3.33-.1-4.96-1.06h-74.67s-.03,77.84-.03,77.84l84.11-.03Z"/>
      <path class="cls-1" d="M1353.34,248.39c1.68-3.92,3.31-6.84,3.64-10.49l.89-9.9.05-194.85h-62.75c-1.57.43-3.32.96-4.9.89-1.24.06-2.28.23-3.24.54-4.25,1.13-8.05,2.48-12.19,4.47-.38-.16-1.06-.63-.97-.92l.45-1.43.18-25.06,1.05-8.56h198.25s.44,13.2.44,13.2l.39,15.93.56,5.98c.02.24-.97.79-1.13.8l-11.88-4.34-3.93-.76c-1.49.23-2.79-.07-4.14-.8l-63.01.02.02,194.46.35,7.41c.3,6.3,4.05,12.78,3.71,12.96l-.87.45-40.98-.03Z"/>
      <path class="cls-1" d="M220.69,245.68l.77,2.72h-41.4s3.17-9.64,3.17-9.64l1.08-4.46V17.92s-1.13-5.38-1.13-5.38c-.69-3.3-2.06-6.21-3.22-9.43h41.69s-.97,2.99-.97,2.99c-.71,2.18-1.75,4.57-2.16,6.79-.29,1.62-.21,2.59-1.17,4.1v216.92s1.21,4.87,1.21,4.87l2.13,6.91Z"/>
      <path class="cls-1" d="M2010.19,248.43c-2.68-.27,2.92-8.31,2.93-15.16l.1-209.19c0-7.5-1.08-14.1-4.55-20.96l42.03-.02-3.24,9.03-1.08,4.82v217.73s1.08,4.55,1.08,4.55l3.15,9.14-40.41.05Z"/>
      <path class="cls-1" d="M0,248.42v-1.46c.1.25,1.33-.26,1.46-.63l2.39-7c1.04-3.03,1.43-4.86,1.43-8.37V22.16c0-2.79.22-4.77-.87-7.87L1.87,5.91c-.08-.26-.49-1.04-.65-1.25-.21-.28-.76-.39-1.22-.34v-.96c.62-.11,1.6-.25,2.5-.25l69.91.03c3.24,0,6.13.15,9.16.73l5.43,1.06,4.16.8c2.64.51,5.03,1.49,7.65,2.45,32.27,11.9,47.84,46.37,41.02,79.15-3.54,17.01-13.36,31.31-28.1,40.66-8.35,5.29-17.43,9.19-27.21,11.02l-3.88.73-7.24,1.02c-3.06.43-6.37.43-9.44.43h-4.09s-11.31-.43-11.31-.43c-1.75-.07-3.52-.79-5.38-.72-1.59.06-2.69-.29-4.8-1.16l.04,97.03c0,1.26.76,3.65,1.15,4.73l2.83,7.78H2.48s-2.48.01-2.48.01ZM107.68,68.56c-.21-1.64-.27-3.39-.64-4.9-4.18-17.14-15.92-25.67-33.05-28.68-1.44-.47-2.36-.64-4.04-.91l-31.58-.05v73.7c8.09,2.91,21.65,4.08,29.77,2.99l6.77-.9c8.76-1.17,19.54-6.51,25.18-13.5,6.26-7.74,8.81-18.05,7.58-27.77Z"/>
    </g>
  </g>
</svg>